<svg id="Capa_1" enable-background="new 0 0 510 510" height="512" viewBox="0 0 510 510" width="512" xmlns="http://www.w3.org/2000/svg"><path d="m464.84 386.593c-33.08 103.52-166.34 85.62-206.89 4.77-.61-1.22-1.78-1.83-2.95-1.83s-2.34.61-2.95 1.83c-40.55 80.86-173.81 98.75-206.89-4.77-2.66-8.33 5.96-15.75 13.86-12.02 57.5 27.12 91.84 10.7 105.58-27.51 9.13-25.37 39.37-36.4 64.31-25.88 12.28 5.17 21.32 14.73 26.09 26.07 4.77-11.34 13.81-20.9 26.09-26.07 24.94-10.52 55.18.51 64.31 25.88 13.74 38.21 48.08 54.63 105.58 27.51 7.9-3.73 16.52 3.69 13.86 12.02z" fill="#4a696f"/><path d="m464.84 386.593c-33.08 103.52-166.34 85.62-206.89 4.77-.61-1.22-1.78-1.83-2.95-1.83v-42.28c4.77-11.34 13.81-20.9 26.09-26.07 24.94-10.52 55.18.51 64.31 25.88 13.74 38.21 48.08 54.63 105.58 27.51 7.9-3.73 16.52 3.69 13.86 12.02z" fill="#293939"/><path d="m303.06 337.163-26.27 14.24c-6.79 3.69-14.29 5.53-21.79 5.53s-15-1.84-21.79-5.53l-26.27-14.24c-17.96-9.73-27.28-30.19-22.84-50.13l29.14-121.12s9.26-15.62 41.76-15.62 41.76 15.62 41.76 15.62l29.14 121.12c4.44 19.94-4.88 40.4-22.84 50.13z" fill="#ffcdbe"/><path d="m303.06 337.163-26.27 14.24c-6.79 3.69-14.29 5.53-21.79 5.53v-206.64c32.5 0 41.76 15.62 41.76 15.62l29.14 121.12c4.44 19.94-4.88 40.4-22.84 50.13z" fill="#ffa68d"/><path d="m510 165.913c0 62.93-51.19 114.12-114.12 114.12-59.7 0-110.66-46.62-113.94-108.01-6.11-4.59-16.59-6.58-26.94-6.49-10.86.08-21.57 2.45-26.94 6.49-3.28 61.41-54.26 108.01-113.94 108.01-62.93 0-114.12-51.19-114.12-114.12s51.19-114.12 114.12-114.12c53.69 0 99.34 37.24 111.16 88.23 8.78-3.17 19.25-4.75 29.72-4.75s20.95 1.58 29.72 4.75c11.8-50.91 57.41-88.23 111.16-88.23 62.93 0 114.12 51.19 114.12 114.12z" fill="#4a696f"/><path d="m510 165.913c0 62.93-51.19 114.12-114.12 114.12-59.7 0-110.66-46.62-113.94-108.01-6.11-4.59-16.59-6.58-26.94-6.49v-30.26c10.47 0 20.95 1.58 29.72 4.75 11.8-50.91 57.41-88.23 111.16-88.23 62.93 0 114.12 51.19 114.12 114.12z" fill="#293939"/><ellipse cx="114.12" cy="165.913" fill="#dffbfc" rx="84.12" ry="84.12" transform="matrix(.23 -.973 .973 .23 -73.574 238.861)"/><ellipse cx="395.88" cy="165.913" fill="#d2d6f8" rx="84.12" ry="84.12" transform="matrix(.707 -.707 .707 .707 -1.367 328.524)"/><path d="m94.667 202.379c-8.284 0-15-6.716-15-15v-14.311c0-8.284 6.716-15 15-15s15 6.716 15 15v14.311c0 8.284-6.716 15-15 15z" fill="#3e5959"/><path d="m409.667 160.402c-8.284 0-15-6.716-15-15v-14.31c0-8.284 6.716-15 15-15s15 6.716 15 15v14.31c0 8.284-6.716 15-15 15z" fill="#293939"/></svg>